<svg xmlns="http://www.w3.org/2000/svg" viewBox="0 0 800 960" fill="none">
  <defs>
    <linearGradient id="bg2" x1="84" y1="88" x2="724" y2="900" gradientUnits="userSpaceOnUse">
      <stop stop-color="#FFF9F1"/>
      <stop offset="1" stop-color="#E7CFAC"/>
    </linearGradient>
    <radialGradient id="glow2" cx="0" cy="0" r="1" gradientTransform="translate(204 190) rotate(90) scale(200 220)" gradientUnits="userSpaceOnUse">
      <stop stop-color="#B66340" stop-opacity=".34"/>
      <stop offset="1" stop-color="#B66340" stop-opacity="0"/>
    </radialGradient>
  </defs>
  <rect width="800" height="960" rx="56" fill="url(#bg2)"/>
  <rect x="36" y="36" width="728" height="888" rx="42" stroke="#9E5A39" stroke-opacity=".18" stroke-width="2" stroke-dasharray="7 11"/>
  <circle cx="202" cy="190" r="204" fill="url(#glow2)"/>
  <ellipse cx="320" cy="402" rx="116" ry="140" fill="#7F3B28"/>
  <ellipse cx="514" cy="382" rx="126" ry="152" fill="#9F5B3A"/>
  <path d="M160 736C160 606.765 264.765 502 394 502H420C549.235 502 654 606.765 654 736V790H160V736Z" fill="#C17A55"/>
  <path d="M216 332C252 238 334 184 416 184C480 184 540 214 582 270C532 248 476 238 416 238C346 238 278 268 216 332Z" fill="#D2A650"/>
  <path d="M428 254C474 194 528 164 600 164C640 164 674 174 704 198C652 204 600 226 548 264C506 294 468 326 434 360L428 254Z" fill="#B66340"/>
  <path d="M348 466C388 484 426 492 462 492C504 492 546 482 588 462" stroke="#FFF7EA" stroke-width="14" stroke-linecap="round"/>
  <text x="92" y="828" fill="#7F3B28" font-family="Baskerville, serif" font-size="62" letter-spacing="-0.03em">Amara &amp; Tunde</text>
  <text x="94" y="876" fill="#7F3B28" fill-opacity=".72" font-family="Avenir Next, Gill Sans, sans-serif" font-size="20" letter-spacing=".32em">QUIET MOMENT</text>
</svg>
